# xmcd
#
# Track frame offsets: 
#        300
#        10795
#        24447
#        37285
#        54825
#        71467
#        83085
#        95046
#        108533
#        120224
#        140385
#
# Disc length: 2057 seconds
#
# Revision: 0
# Processed by: cddbd v1.5.2PL0 Copyright (c) Steve Scherf et al.
# Submitted via: ExactAudioCopy v1.0b1
#
DISCID=8808050b
DTITLE=Dana Gillespie - Below The Belt
DYEAR=1984
DGENRE=General Blues
TTITLE0=Lovin' Machine
TTITLE1=Sixty Minute Man
TTITLE2=Ugly Papa
TTITLE3=One Hour Mama
TTITLE4=Below The Belt
TTITLE5=My Man Stands Out
TTITLE6=It Ain't The Meat
TTITLE7=Joe's Joint
TTITLE8=Don't You Make Me High
TTITLE9=Empty Bed Blues
TTITLE10=Horizontal Boogie
EXTD=
EXTT0=
EXTT1=
EXTT2=
EXTT3=
EXTT4=
EXTT5=
EXTT6=
EXTT7=
EXTT8=
EXTT9=
EXTT10=
PLAYORDER=
